<svg width="350" height="337" viewBox="0 0 350 337" fill="none" xmlns="http://www.w3.org/2000/svg">
<path d="M282.848 48.7407L281.435 46.4446C269.501 26.6982 247.917 14.8044 225.171 16.2433C222.241 16.4256 219.329 16.8273 216.459 17.4449C195.775 21.8841 177.772 37.5664 170.312 57.6419C165.922 69.4591 164.7 83.052 156.37 92.4277C145.536 104.628 127.135 105.01 110.963 104.505C94.7916 104 76.3754 104.436 65.5944 116.682C58.8372 124.336 56.6917 135.265 57.2338 145.536C58.6769 172.737 77.5894 197.061 101.633 209.146C125.676 221.231 153.988 222.318 180.276 216.998C217.139 209.551 252.2 189.093 273.273 157.491C294.347 125.889 299.714 82.8453 282.848 48.7407Z" fill="#F5F5F5"/>
<path d="M158.676 122.131L163.349 120.708L183.643 120.111L188.224 121.358L187.629 132.548L177.268 139.168L167.22 138.969L160.905 133.199L159.508 127.481L158.676 122.131Z" fill="#FFBE9D"/>
<path d="M217.292 139.742C216.075 137.185 214.7 134.705 213.176 132.318C210.711 128.525 206.938 125.773 202.579 124.588L186.018 120.088C186.018 120.088 185.163 136.673 173.801 136.673C162.44 136.673 160.195 121.129 160.195 121.129L141.031 128.782C140.374 129.035 135.923 130.581 130.754 141.694C125.829 152.279 123.676 157.698 123.676 157.698L143.421 163.408L144.65 181.21L143.955 204.263H204.274L203.472 179.825L204.037 161.808L204.8 163.017L224.736 155.004C224.736 155.004 222.14 149.753 217.292 139.742Z" fill="#378AF5"/>
<path d="M144.176 196.555C143.749 198.3 142.649 202.181 141.97 203.811C141.83 204.312 141.83 204.841 141.97 205.342C142.207 205.839 143.199 205.656 143.741 205.548C148.719 204.576 154.224 205.38 159.088 206.834C164.143 208.365 169.014 211.166 174.259 211.074C177.81 211.013 181.185 209.628 184.598 208.625C190.929 206.77 197.566 206.195 204.121 206.934C204.564 207.034 205.028 206.977 205.434 206.773C206.014 206.375 205.969 205.525 205.854 204.829C205.602 203.183 203.869 198.66 203.449 197.03" fill="#378AF5"/>
<path d="M140.809 139.383C140.924 139.383 141.573 144.863 142.222 151.629C142.871 158.394 143.344 163.936 143.237 163.943C143.131 163.951 142.474 158.463 141.825 151.698C141.176 144.932 140.703 139.39 140.809 139.383Z" fill="#263238"/>
<path d="M205.037 141.832C205.144 141.832 204.976 146.952 204.655 153.251C204.335 159.55 203.983 164.655 203.892 164.648C203.8 164.64 203.953 159.527 204.274 153.228C204.594 146.929 204.93 141.824 205.037 141.832Z" fill="#263238"/>
<path d="M189.301 120.938C189.298 121.116 189.272 121.293 189.224 121.466C189.156 121.848 189.057 122.346 188.934 122.996C188.561 124.842 188.082 126.664 187.499 128.453C186.658 131.138 185.284 133.624 183.46 135.763C182.359 137.006 181.046 138.043 179.581 138.824C177.988 139.666 176.213 140.103 174.412 140.095C170.93 140.019 167.592 138.684 165.013 136.337C162.947 134.43 161.317 132.099 160.233 129.502C159.492 127.776 158.922 125.982 158.531 124.144C158.393 123.494 158.302 122.989 158.256 122.614C158.217 122.44 158.196 122.263 158.195 122.086C158.258 122.251 158.304 122.423 158.332 122.598L158.683 124.091C159.127 125.906 159.73 127.679 160.485 129.387C161.587 131.925 163.214 134.2 165.257 136.061C167.782 138.329 171.031 139.618 174.42 139.697C176.156 139.703 177.867 139.285 179.406 138.48C180.846 137.718 182.139 136.705 183.223 135.487C185.031 133.391 186.406 130.956 187.27 128.323C188.033 126.096 188.492 124.221 188.797 122.966L189.163 121.481C189.197 121.297 189.243 121.115 189.301 120.938Z" fill="#263238"/>
<path d="M165.441 132.862C165.509 132.954 165.105 133.344 164.547 133.742C163.99 134.14 163.478 134.377 163.417 134.286C163.356 134.194 163.753 133.803 164.318 133.413C164.883 133.023 165.38 132.778 165.441 132.862Z" fill="#263238"/>
<path d="M172.236 139.857C172.105 139.327 172.105 138.773 172.236 138.242C172.246 137.709 172.38 137.185 172.626 136.712C172.74 136.712 172.74 137.477 172.626 138.327C172.617 138.86 172.483 139.385 172.236 139.857Z" fill="#263238"/>
<path d="M182.284 137.01C182.208 137.087 181.574 136.612 180.872 135.939C180.169 135.265 179.665 134.668 179.734 134.584C179.803 134.5 180.444 134.982 181.146 135.656C181.849 136.329 182.36 136.911 182.284 137.01Z" fill="#263238"/>
<path d="M186.453 130.29C186.392 130.382 185.819 130.114 185.124 129.793C184.43 129.471 183.842 129.219 183.872 129.104C183.903 128.989 184.559 129.104 185.285 129.433C186.01 129.762 186.514 130.199 186.453 130.29Z" fill="#263238"/>
<path d="M161.257 125.897C161.295 125.996 160.89 126.241 160.356 126.44C159.821 126.639 159.355 126.724 159.317 126.616C159.279 126.509 159.684 126.272 160.218 126.073C160.753 125.874 161.257 125.797 161.257 125.897Z" fill="#263238"/>
<g opacity="0.3">
<path d="M204.885 144.878L206.885 162.198L204.77 163.048L204.022 161.839L204.885 144.878Z" fill="black"/>
</g>
<path d="M136.824 140.079C136.088 139.95 135.395 139.64 134.808 139.176C133.777 138.503 133.098 137.76 133.174 137.646C134.425 138.39 135.643 139.19 136.824 140.041V140.079Z" fill="white"/>
<path d="M152.972 142.574C151.867 142.664 150.755 142.623 149.659 142.452C148.548 142.414 147.445 142.242 146.375 141.939C147.484 141.85 148.598 141.891 149.697 142.062C150.806 142.095 151.906 142.267 152.972 142.574Z" fill="white"/>
<path d="M170.465 145.797C169.359 145.802 168.254 145.705 167.166 145.506C166.063 145.44 164.967 145.278 163.891 145.024C164.996 144.886 166.115 144.914 167.212 145.108C168.324 145.177 169.42 145.409 170.465 145.797Z" fill="white"/>
<path d="M192.683 143.523C191.442 143.931 190.163 144.21 188.866 144.358C187.593 144.635 186.297 144.784 184.995 144.802C187.505 144.117 190.079 143.689 192.676 143.523H192.683Z" fill="white"/>
<path d="M206.305 138.342C205.831 138.954 205.197 139.42 204.472 139.689C203.803 140.077 203.038 140.266 202.266 140.232C202.924 139.886 203.605 139.584 204.304 139.329C204.948 138.954 205.616 138.625 206.305 138.342Z" fill="white"/>
<path d="M214.207 136.321C213.485 136.897 212.658 137.326 211.771 137.584C210.929 137.97 210.017 138.181 209.091 138.204C209.914 137.801 210.77 137.471 211.649 137.217C212.47 136.835 213.327 136.535 214.207 136.321Z" fill="white"/>
<path d="M198.066 135.258C195.843 136.052 193.538 136.596 191.194 136.88C192.28 136.418 193.415 136.081 194.577 135.878C195.713 135.539 196.883 135.331 198.066 135.258Z" fill="white"/>
<path d="M209.122 130.313C208.27 130.958 207.342 131.496 206.358 131.913C205.43 132.445 204.44 132.861 203.411 133.153C205.19 131.973 207.108 131.019 209.122 130.313Z" fill="white"/>
<path d="M197.142 128.89C195.641 129.502 194.049 129.861 192.431 129.953C193.15 129.588 193.924 129.342 194.722 129.226C195.505 128.984 196.323 128.87 197.142 128.89Z" fill="white"/>
<path d="M204.51 126.594C204.556 126.701 204.075 126.992 203.441 127.252C202.808 127.512 202.265 127.634 202.22 127.535C202.174 127.435 202.662 127.137 203.296 126.884C203.93 126.632 204.472 126.494 204.51 126.594Z" fill="white"/>
<path d="M175.718 142.268C174.597 142.5 173.444 142.531 172.312 142.36C171.169 142.306 170.044 142.047 168.991 141.595C170.116 141.643 171.238 141.755 172.351 141.931C173.478 141.98 174.603 142.092 175.718 142.268Z" fill="white"/>
<path d="M186.888 139.153C186.888 139.26 186.277 139.528 185.46 139.75C184.643 139.972 183.933 140.064 183.933 139.957C183.933 139.85 184.544 139.59 185.361 139.36C186.178 139.13 186.858 139.046 186.888 139.153Z" fill="white"/>
<path d="M160.653 138.993C159.752 139.103 158.838 139.08 157.943 138.924C157.034 138.899 156.133 138.739 155.271 138.449C156.173 138.343 157.086 138.369 157.981 138.526C158.889 138.555 159.789 138.712 160.653 138.993Z" fill="white"/>
<path d="M148.666 136.099C147.673 136.098 146.684 135.965 145.727 135.701C144.745 135.577 143.784 135.319 142.871 134.936C143.864 134.937 144.853 135.071 145.811 135.334C146.792 135.463 147.752 135.72 148.666 136.099Z" fill="white"/>
<path d="M149.483 129.418C148.743 129.548 147.986 129.548 147.246 129.418C146.492 129.415 145.745 129.278 145.039 129.012C145.782 128.882 146.541 128.882 147.284 129.012C148.035 129.015 148.78 129.153 149.483 129.418Z" fill="white"/>
<path d="M157.554 132.265C156.907 132.522 156.196 132.567 155.523 132.395C154.83 132.351 154.171 132.083 153.644 131.63C154.3 131.719 154.95 131.847 155.591 132.012C156.251 132.049 156.906 132.133 157.554 132.265Z" fill="white"/>
<path d="M156.614 126.609C155.951 126.621 155.292 126.502 154.675 126.257C154.02 126.125 153.397 125.865 152.843 125.491C153.506 125.474 154.165 125.591 154.782 125.836C155.438 125.968 156.061 126.231 156.614 126.609Z" fill="white"/>
<path d="M194.562 123.899C194.562 124.007 194.103 124.244 193.477 124.435C192.851 124.626 192.309 124.688 192.279 124.581C192.248 124.473 192.729 124.236 193.363 124.052C193.997 123.869 194.531 123.815 194.562 123.899Z" fill="white"/>
<path d="M137.259 147.458C135.703 147.019 134.228 146.332 132.892 145.422C134.45 145.852 135.927 146.54 137.259 147.458Z" fill="white"/>
<path d="M130.716 154.162C129.945 154.216 129.171 154.141 128.425 153.94C127.653 153.858 126.899 153.649 126.196 153.32C127.745 153.333 129.28 153.618 130.731 154.162H130.716Z" fill="white"/>
<path d="M139.786 157.361C138.843 157.151 137.917 156.872 137.015 156.527C136.072 156.309 135.146 156.025 134.243 155.677C136.208 155.728 138.124 156.31 139.786 157.361Z" fill="white"/>
<path d="M149.04 149.922C147.427 150.187 145.782 150.187 144.169 149.922C145.782 149.657 147.427 149.657 149.04 149.922Z" fill="white"/>
<path d="M152.858 160.055C151.812 159.855 150.777 159.6 149.758 159.29C148.707 159.088 147.667 158.833 146.643 158.525C148.813 158.472 150.959 159 152.858 160.055Z" fill="white"/>
<path d="M170.778 155.685C170.254 155.761 169.721 155.761 169.197 155.685C167.917 155.599 166.643 155.443 165.38 155.218C164.126 154.998 162.885 154.712 161.661 154.361C161.141 154.25 160.64 154.064 160.172 153.81C160.172 153.695 162.532 154.315 165.448 154.828C168.365 155.341 170.785 155.57 170.778 155.685Z" fill="white"/>
<path d="M170.869 162.221C169.72 162.353 168.56 162.353 167.411 162.221C166.256 162.23 165.105 162.099 163.982 161.831C165.129 161.704 166.287 161.704 167.434 161.831C168.59 161.833 169.742 161.964 170.869 162.221Z" fill="white"/>
<path d="M182.124 150.986C179.898 151.307 177.643 151.363 175.405 151.154C177.63 150.833 179.885 150.776 182.124 150.986Z" fill="white"/>
<path d="M191.698 159.405C190.105 159.781 188.483 160.021 186.85 160.124C185.229 160.36 183.593 160.467 181.956 160.446C183.551 160.079 185.172 159.838 186.804 159.726C188.425 159.491 190.061 159.383 191.698 159.405Z" fill="white"/>
<path d="M199.433 149.976C197.975 150.529 196.473 150.96 194.943 151.261C193.445 151.696 191.912 152.001 190.362 152.172C191.819 151.614 193.321 151.181 194.852 150.879C196.351 150.449 197.883 150.147 199.433 149.976Z" fill="white"/>
<path d="M200.25 156.167C199.79 156.661 199.195 157.007 198.539 157.162C197.921 157.437 197.237 157.525 196.57 157.415C197.161 157.145 197.777 156.935 198.41 156.787C199 156.517 199.617 156.309 200.25 156.167Z" fill="white"/>
<path d="M211.512 143.715C210.772 144.135 209.971 144.434 209.137 144.603C208.342 144.903 207.505 145.074 206.656 145.108C207.397 144.692 208.198 144.393 209.03 144.22C209.828 143.929 210.664 143.758 211.512 143.715Z" fill="white"/>
<path d="M217.238 150.833C214.627 151.779 211.933 152.476 209.191 152.915C210.472 152.377 211.801 151.964 213.161 151.682C214.489 151.266 215.855 150.981 217.238 150.833Z" fill="white"/>
<path d="M219.239 144.901C218.375 145.473 217.44 145.931 216.46 146.263C215.528 146.718 214.543 147.053 213.528 147.258C215.324 146.234 217.243 145.442 219.239 144.901Z" fill="white"/>
<path d="M213.36 157.024C211.978 158.041 210.448 158.836 208.824 159.382C210.205 158.366 211.735 157.57 213.36 157.024Z" fill="white"/>
<path d="M155.408 172.73C154.341 172.842 153.264 172.824 152.201 172.676C151.128 172.657 150.061 172.505 149.025 172.225C150.092 172.113 151.169 172.131 152.232 172.278C153.305 172.298 154.372 172.449 155.408 172.73Z" fill="white"/>
<path d="M160.776 168.513C158.435 168.262 156.13 167.749 153.904 166.982C155.084 167.034 156.255 167.222 157.393 167.541C158.554 167.735 159.688 168.061 160.776 168.513Z" fill="white"/>
<path d="M180.268 168.474C178.374 168.74 176.452 168.74 174.557 168.474C176.452 168.209 178.374 168.209 180.268 168.474Z" fill="white"/>
<path d="M177.077 175.34C176.58 175.48 176.065 175.542 175.55 175.523C174.337 175.568 173.122 175.524 171.915 175.393C170.707 175.265 169.51 175.045 168.334 174.735C167.839 174.642 167.36 174.474 166.914 174.237C166.914 174.123 169.159 174.704 171.961 175.003C174.763 175.301 177.069 175.217 177.077 175.34Z" fill="white"/>
<path d="M198.41 170.487C196.958 170.856 195.463 171.026 193.966 170.992C192.473 171.089 190.973 170.986 189.507 170.686C189.507 170.571 191.508 170.648 193.958 170.594C196.409 170.541 198.395 170.372 198.41 170.487Z" fill="white"/>
<path d="M198.074 164.265C196.111 164.867 194.078 165.206 192.027 165.275C193.99 164.675 196.023 164.335 198.074 164.265Z" fill="white"/>
<path d="M153.056 201.14C151.907 201.161 150.758 201.122 149.613 201.025C148.465 201.066 147.315 201.048 146.169 200.972C147.293 200.655 148.464 200.538 149.628 200.627C150.792 200.593 151.953 200.767 153.056 201.14Z" fill="white"/>
<path d="M165.487 204.845C164.078 204.91 162.667 204.838 161.272 204.63C159.861 204.555 158.461 204.35 157.088 204.018C158.499 203.953 159.913 204.024 161.31 204.232C162.718 204.306 164.116 204.511 165.487 204.845Z" fill="white"/>
<path d="M177.581 207.707C176.238 208.165 174.836 208.422 173.42 208.472C172.011 208.652 170.583 208.626 169.182 208.396C169.182 208.281 171.076 208.266 173.389 208.082C175.703 207.898 177.558 207.592 177.581 207.707Z" fill="white"/>
<path d="M176.413 202.036C175.312 202.283 174.188 202.406 173.061 202.403C171.942 202.533 170.812 202.533 169.694 202.403C170.789 202.146 171.912 202.022 173.038 202.036C174.158 201.897 175.292 201.897 176.413 202.036Z" fill="white"/>
<path d="M166.326 198.645C164.81 198.869 163.278 198.963 161.745 198.928C160.202 199.02 158.655 198.981 157.118 198.813C158.647 198.589 160.193 198.494 161.738 198.53C163.268 198.44 164.803 198.478 166.326 198.645Z" fill="white"/>
<path d="M189.843 198.423C188.383 198.733 186.899 198.912 185.407 198.959C183.925 199.139 182.43 199.185 180.94 199.097C182.401 198.791 183.885 198.612 185.376 198.561C186.858 198.385 188.353 198.339 189.843 198.423Z" fill="white"/>
<path d="M190.683 203.008C190.683 203.13 188.705 203.283 186.338 203.865C183.971 204.447 182.131 205.212 182.086 205.105C183.363 204.314 184.773 203.762 186.247 203.475C187.687 203.061 189.188 202.903 190.683 203.008Z" fill="white"/>
<path d="M202.273 200.436C201.639 200.701 200.96 200.844 200.273 200.857C199.6 200.991 198.907 200.991 198.234 200.857C199.539 200.445 200.911 200.294 202.273 200.413V200.436Z" fill="white"/>
<path d="M188.415 124.183C188.369 124.282 187.751 124.06 186.987 123.8C186.224 123.54 185.598 123.356 185.613 123.241C186.128 123.134 186.665 123.199 187.14 123.425C187.911 123.693 188.469 124.091 188.415 124.183Z" fill="#263238"/>
<path d="M156.752 182.542C155.355 182.596 153.957 182.517 152.575 182.305C151.182 182.225 149.799 182.015 148.445 181.677C149.839 181.618 151.235 181.697 152.613 181.914C154.009 181.994 155.395 182.204 156.752 182.542Z" fill="white"/>
<path d="M169.503 180.774C168.451 180.912 167.386 180.912 166.334 180.774C165.276 180.768 164.222 180.635 163.196 180.376C164.248 180.238 165.313 180.238 166.365 180.376C167.423 180.381 168.476 180.515 169.503 180.774Z" fill="white"/>
<path d="M189.698 179.35C189.698 179.465 187.888 179.45 185.682 179.649C183.475 179.848 181.696 180.162 181.673 180.047C182.948 179.584 184.288 179.326 185.644 179.281C186.99 179.087 188.359 179.11 189.698 179.35Z" fill="white"/>
<path d="M198.86 186.537C197.002 186.711 195.135 186.752 193.271 186.659C191.406 186.696 189.541 186.601 187.69 186.376C189.547 186.198 191.415 186.157 193.279 186.254C195.144 186.217 197.009 186.312 198.86 186.537Z" fill="white"/>
<path d="M199.578 177.33C198.314 178.032 196.85 178.286 195.424 178.049C196.097 177.84 196.791 177.707 197.493 177.651C198.175 177.469 198.874 177.361 199.578 177.33Z" fill="white"/>
<path d="M177.367 186.33C176.332 186.733 175.22 186.895 174.114 186.805C173.003 186.845 171.897 186.636 170.877 186.192C170.877 186.078 172.335 186.376 174.122 186.407C175.909 186.437 177.344 186.215 177.367 186.33Z" fill="white"/>
<path d="M165.632 187.67C163.54 187.935 161.424 187.935 159.333 187.67C161.424 187.404 163.54 187.404 165.632 187.67Z" fill="white"/>
<path d="M157.179 192.124C155.512 192.336 153.823 192.287 152.171 191.979C152.996 191.801 153.844 191.757 154.683 191.849C155.524 191.803 156.368 191.897 157.179 192.124Z" fill="white"/>
<path d="M175.229 193.724C173.896 193.879 172.55 193.9 171.213 193.785C169.869 193.802 168.527 193.689 167.204 193.448C168.541 193.297 169.888 193.276 171.228 193.387C172.57 193.369 173.91 193.482 175.229 193.724Z" fill="white"/>
<path d="M190.981 191.412C189.812 191.453 188.642 191.425 187.476 191.328C186.304 191.36 185.132 191.324 183.964 191.221C185.113 190.926 186.302 190.828 187.484 190.93C188.668 190.897 189.849 191.06 190.981 191.412Z" fill="white"/>
<path d="M202.296 194.703C201.111 194.851 199.917 194.927 198.723 194.933C197.532 195.072 196.333 195.138 195.134 195.132C197.464 194.48 199.905 194.334 202.296 194.703Z" fill="white"/>
<path d="M148.277 187.96C148.277 188.068 147.704 188.251 146.948 188.366C146.192 188.481 145.574 188.496 145.559 188.366C145.543 188.236 146.139 188.075 146.887 187.953C147.635 187.83 148.277 187.846 148.277 187.96Z" fill="white"/>
<path d="M149.59 164.839C149.59 164.954 148.872 165.107 147.964 165.183C147.412 165.297 146.842 165.278 146.299 165.13C147.357 164.769 148.486 164.669 149.59 164.839Z" fill="white"/>
<path d="M160.195 148.016C159.645 148.146 159.073 148.146 158.523 148.016C157.615 147.894 156.889 147.71 156.905 147.595C157.454 147.466 158.027 147.466 158.577 147.595C159.485 147.718 160.211 147.901 160.195 148.016Z" fill="white"/>
<path d="M200.013 146.348C198.813 146.753 197.575 147.033 196.318 147.182C195.085 147.461 193.825 147.61 192.561 147.626C193.761 147.22 194.999 146.938 196.257 146.784C197.49 146.504 198.749 146.358 200.013 146.348Z" fill="white"/>
<g opacity="0.3">
<path d="M143.764 196.908C144.879 198.767 147.208 199.533 149.376 199.655C151.545 199.778 153.721 199.403 155.874 199.655C159.249 200.069 162.257 201.997 165.563 202.831C173.084 204.714 180.833 200.696 188.56 200.665C191.194 200.665 193.813 201.109 196.448 201.217C199.082 201.324 201.83 201.056 204.083 199.732L203.892 196.9L143.764 196.908Z" fill="black"/>
</g>
<path d="M197.57 236.844H152.888V247.613H197.57V236.844Z" fill="#455A64"/>
<path d="M156.378 247.613L133.632 336.059H138.534L163.479 247.613H156.378Z" fill="#455A64"/>
<path d="M192.882 247.613L215.795 336.059H210.893L185.781 247.613H192.882Z" fill="#455A64"/>
<path d="M185.857 247.888C185.926 247.973 179.329 253.912 171.114 261.152C162.898 268.393 156.179 274.202 156.11 274.117C156.042 274.033 162.639 268.102 170.854 260.854C179.07 253.606 185.781 247.812 185.857 247.888Z" fill="#263238"/>
<path d="M196.967 274.408C196.898 274.5 189.163 268.538 179.688 261.106C170.213 253.675 162.593 247.582 162.661 247.491C162.73 247.399 170.457 253.361 179.932 260.793C189.408 268.224 197.028 274.324 196.967 274.408Z" fill="#263238"/>
<path d="M197.356 247.621C197.356 247.728 187.598 247.82 175.565 247.82C163.532 247.82 153.774 247.728 153.774 247.621C153.774 247.514 163.532 247.414 175.565 247.414C187.598 247.414 197.356 247.506 197.356 247.621Z" fill="#263238"/>
<path d="M178.329 304.526L169.167 319.213L197.066 336.816C198.593 334.046 187.522 319.565 187.522 319.565L191.95 313.044L178.329 304.526Z" fill="#378AF5"/>
<g opacity="0.3">
<path d="M178.268 304.526L169.144 319.213L197.051 336.816C198.578 334.046 187.499 319.565 187.499 319.565L191.927 313.044L178.268 304.526Z" fill="black"/>
</g>
<path d="M179.635 312.945C179.323 312.861 178.993 312.892 178.702 313.033C178.412 313.173 178.182 313.414 178.054 313.71C177.954 314.025 177.977 314.366 178.119 314.665C178.261 314.963 178.51 315.197 178.818 315.317C179.157 315.407 179.517 315.368 179.83 315.209C180.142 315.049 180.385 314.78 180.513 314.452C180.564 314.12 180.489 313.781 180.302 313.501C180.116 313.222 179.831 313.023 179.505 312.945" fill="white"/>
<path d="M169.197 319.136L170.602 316.84L196.791 334.811C196.791 334.811 197.684 336.143 196.99 336.923L169.197 319.136Z" fill="white"/>
<path d="M188.041 319.741C187.949 319.871 187.232 319.504 186.285 319.519C185.338 319.534 184.62 319.886 184.529 319.749C184.437 319.611 185.14 318.983 186.285 318.983C187.43 318.983 188.148 319.634 188.041 319.741Z" fill="#263238"/>
<path d="M190.209 322.802C190.156 322.948 189.446 322.802 188.591 323.093C187.736 323.384 187.247 323.912 187.117 323.82C186.987 323.728 187.384 322.894 188.415 322.565C189.446 322.236 190.271 322.665 190.209 322.802Z" fill="#263238"/>
<path d="M189.66 327.356C189.522 327.31 189.759 326.507 190.576 325.979C191.393 325.451 192.225 325.558 192.21 325.711C192.195 325.864 191.553 326.009 190.881 326.476C190.209 326.943 189.805 327.433 189.66 327.356Z" fill="#263238"/>
<path d="M189.866 316.289C189.728 316.373 189.225 315.792 188.423 315.355C187.621 314.919 186.896 314.789 186.896 314.628C186.896 314.468 187.781 314.338 188.721 314.866C189.66 315.394 190.003 316.22 189.866 316.289Z" fill="#263238"/>
<path d="M180.452 304.709L189.545 318.899L161.89 336.908C160.363 334.153 171.198 319.519 171.198 319.519L166.922 313.396L180.452 304.709Z" fill="#378AF5"/>
<g opacity="0.6">
<path d="M178.97 312.753C179.287 312.657 179.628 312.683 179.927 312.824C180.225 312.965 180.462 313.213 180.589 313.519C180.692 313.835 180.67 314.178 180.528 314.478C180.386 314.778 180.135 315.013 179.826 315.133C179.487 315.231 179.125 315.198 178.809 315.043C178.493 314.887 178.246 314.619 178.115 314.292C178.043 313.951 178.104 313.596 178.286 313.3C178.468 313.003 178.757 312.788 179.093 312.7" fill="white"/>
</g>
<g opacity="0.6">
<path d="M189.507 318.807L188.072 316.511L162.112 334.88C162.112 334.88 161.241 336.227 161.944 337L189.507 318.807Z" fill="white"/>
</g>
<path d="M170.656 319.672C170.747 319.802 171.465 319.427 172.412 319.427C173.359 319.427 174.076 319.772 174.168 319.634C174.259 319.496 173.549 318.868 172.404 318.868C171.259 318.868 170.549 319.565 170.656 319.672Z" fill="#263238"/>
<path d="M168.533 322.764C168.586 322.917 169.297 322.764 170.152 323.04C171.007 323.315 171.511 323.805 171.641 323.736C171.77 323.667 171.358 322.825 170.32 322.504C169.281 322.182 168.457 322.634 168.533 322.764Z" fill="#263238"/>
<path d="M169.144 327.318C169.289 327.264 169.037 326.468 168.205 325.948C167.372 325.428 166.555 325.55 166.571 325.703C166.586 325.856 167.235 325.994 167.907 326.43C168.579 326.866 168.999 327.387 169.144 327.318Z" fill="#263238"/>
<path d="M168.785 316.243C168.922 316.335 169.419 315.738 170.213 315.294C171.007 314.85 171.74 314.705 171.74 314.529C171.74 314.353 170.854 314.253 169.923 314.797C168.991 315.34 168.647 316.182 168.785 316.243Z" fill="#263238"/>
<path d="M143.512 204.049C143.512 204.049 119.263 228.058 124.333 245.241C128.372 258.818 163.478 315.761 163.478 315.761L184.559 301.939L157.126 250.721C156.842 248.215 156.331 245.74 155.599 243.327L157.126 241.284C157.126 241.284 166.22 236.967 173.855 237.457L174.534 204.286L143.512 204.049Z" fill="#263238"/>
<path d="M173.855 237.472C173.855 237.472 188.056 241 191.034 241C192.912 241 191.882 246.633 192.897 248.93V249.427L172.969 302.352L193.531 314.514C193.531 314.514 209.069 275.304 212.382 268.676C215.696 262.048 221.018 246.626 223.072 242.041C225.126 237.457 222.308 229.528 218.75 222.639C215.192 215.751 203.991 204.271 203.991 204.271H174.534L173.855 237.472Z" fill="#263238"/>
<path d="M214.955 228.578C213.708 228.169 212.432 227.855 211.138 227.637C208.03 227.164 204.853 227.635 202.014 228.988C199.176 230.341 196.806 232.515 195.211 235.229C194.574 236.364 194.02 237.543 193.554 238.758C193.595 238.407 193.679 238.062 193.806 237.732C194.101 236.811 194.492 235.923 194.974 235.084C196.539 232.266 198.941 230.008 201.846 228.624C204.752 227.24 208.016 226.798 211.184 227.361C212.134 227.519 213.065 227.775 213.963 228.127C214.31 228.238 214.643 228.39 214.955 228.578Z" fill="#455A64"/>
<path d="M203.159 241C202.606 241.383 202.027 241.725 201.426 242.026C200.033 242.831 198.698 243.734 197.432 244.728C196.17 245.725 194.981 246.812 193.874 247.98C193.439 248.491 192.973 248.975 192.477 249.427C192.8 248.83 193.201 248.28 193.668 247.789C194.729 246.551 195.908 245.421 197.188 244.414C198.464 243.401 199.837 242.519 201.288 241.781C201.877 241.443 202.505 241.181 203.159 241Z" fill="#455A64"/>
<path d="M157.179 241.261C157.111 241.306 156.416 240.212 155.034 238.735C154.206 237.869 153.301 237.08 152.331 236.378C149.959 234.65 147.243 233.457 144.367 232.88C143.196 232.637 142.005 232.494 140.809 232.451C138.771 232.382 137.503 232.574 137.496 232.497C137.779 232.399 138.075 232.34 138.374 232.321C138.72 232.264 139.069 232.228 139.42 232.214C139.832 232.214 140.298 232.145 140.817 232.168C142.031 232.172 143.243 232.287 144.436 232.512C145.898 232.805 147.326 233.248 148.697 233.837C150.045 234.446 151.325 235.198 152.514 236.079C153.487 236.809 154.387 237.632 155.202 238.536C155.561 238.911 155.828 239.301 156.088 239.623C156.31 239.894 156.514 240.181 156.698 240.48C156.888 240.721 157.049 240.983 157.179 241.261Z" fill="#455A64"/>
<path d="M157.179 241.261C157.008 240.674 156.867 240.079 156.759 239.477C156.389 238.06 155.877 236.683 155.232 235.367C154.27 233.53 153.175 231.765 151.957 230.086C152.44 230.468 152.866 230.917 153.224 231.418C154.152 232.583 154.946 233.849 155.591 235.191C156.245 236.534 156.72 237.957 157.004 239.424C157.165 240.022 157.225 240.643 157.179 241.261Z" fill="#455A64"/>
<path d="M163.478 315.761C163.478 315.761 163.478 315.761 163.57 315.684L163.845 315.485L164.952 314.72L169.174 311.896L184.285 301.908L184.231 302.13L172.595 280.064C166.533 268.492 161.02 257.953 156.912 250.123V250.085C156.403 247.59 155.932 245.368 155.5 243.419C154.728 241.25 153.283 239.385 151.377 238.099C150.867 237.765 150.333 237.468 149.781 237.212L149.353 237.028C149.262 236.982 149.208 236.959 149.216 236.951C150.003 237.191 150.752 237.544 151.438 238C153.41 239.268 154.912 241.15 155.713 243.358L157.179 250.009V249.97L172.954 279.858L184.544 301.954L184.613 302.092L184.483 302.176L169.289 312.049L165.013 314.797L163.883 315.508L163.593 315.684L163.478 315.761Z" fill="#455A64"/>
<path d="M173.419 228.961C173.419 229.038 172.32 228.961 170.556 229.061C168.259 229.202 165.982 229.579 163.761 230.186C161.536 230.773 159.39 231.629 157.37 232.734C155.843 233.599 154.996 234.319 154.95 234.265C155.113 234.064 155.3 233.884 155.507 233.729C155.733 233.524 155.973 233.335 156.225 233.163C156.548 232.922 156.884 232.699 157.233 232.497C159.234 231.299 161.397 230.394 163.654 229.811C165.895 229.194 168.202 228.85 170.526 228.785C171.231 228.762 171.938 228.785 172.641 228.854C172.904 228.854 173.166 228.89 173.419 228.961Z" fill="#455A64"/>
<path d="M173.137 224.713C172.97 224.494 172.836 224.252 172.74 223.994L171.786 221.981C170.785 219.759 169.527 217.662 168.037 215.735C166.522 213.833 164.541 212.356 162.287 211.449C161.336 211.124 160.357 210.886 159.363 210.738C159.636 210.696 159.914 210.696 160.188 210.738C160.937 210.798 161.676 210.952 162.387 211.197C164.729 212.053 166.79 213.542 168.342 215.498C169.863 217.446 171.109 219.593 172.045 221.881C172.419 222.746 172.702 223.458 172.885 223.948C172.996 224.193 173.081 224.45 173.137 224.713Z" fill="#455A64"/>
<path d="M191.034 212.866C191.034 212.95 189.919 213.003 188.186 213.47C187.177 213.751 186.194 214.117 185.247 214.565C182.926 215.671 180.865 217.257 179.199 219.218C178.524 220.016 177.918 220.871 177.39 221.774C176.489 223.305 176.145 224.4 176.069 224.377C176.109 224.114 176.18 223.857 176.283 223.611C176.369 223.315 176.479 223.026 176.611 222.746C176.764 222.417 176.916 222.035 177.146 221.637C177.651 220.695 178.247 219.806 178.925 218.981C180.586 216.941 182.698 215.317 185.094 214.236C186.074 213.789 187.098 213.442 188.148 213.202C188.546 213.104 188.948 213.027 189.354 212.973C189.656 212.915 189.963 212.881 190.271 212.873C190.524 212.842 190.78 212.839 191.034 212.866Z" fill="#455A64"/>
<path d="M194.401 235.536C194.34 235.589 193.592 234.77 192.111 233.783C190.133 232.542 188.006 231.557 185.781 230.852C183.569 230.1 181.283 229.587 178.963 229.321L177.764 229.237H176.832C176.579 229.267 176.323 229.267 176.069 229.237C176.313 229.139 176.571 229.077 176.832 229.053C177.084 229.053 177.398 229.007 177.756 228.984H178.978C181.337 229.177 183.662 229.66 185.903 230.423C188.158 231.133 190.3 232.164 192.263 233.484C192.603 233.718 192.927 233.974 193.233 234.25C193.474 234.44 193.699 234.65 193.905 234.877C194.096 235.076 194.263 235.297 194.401 235.536Z" fill="#455A64"/>
<path d="M194.989 241.819C194.989 241.857 194.714 241.712 194.439 241.36C194.091 240.888 193.875 240.331 193.813 239.747C193.752 239.163 193.846 238.573 194.088 238.038C194.287 237.633 194.493 237.449 194.531 237.472C194.3 238.193 194.191 238.949 194.21 239.707C194.345 240.451 194.609 241.166 194.989 241.819Z" fill="#455A64"/>
<path d="M193.997 246.128C193.951 246.128 193.783 245.96 193.622 245.577C193.441 245.072 193.382 244.531 193.451 243.998C193.52 243.466 193.715 242.958 194.019 242.516C194.264 242.187 194.485 242.041 194.516 242.079C194.215 242.71 193.987 243.372 193.836 244.054C193.81 244.749 193.863 245.445 193.997 246.128Z" fill="#455A64"/>
<path d="M174.023 224.376C174.196 226.564 174.234 228.759 174.137 230.951C174.174 233.144 174.077 235.337 173.847 237.518C173.679 235.33 173.644 233.135 173.74 230.943C173.703 228.751 173.798 226.558 174.023 224.376Z" fill="#455A64"/>
<path d="M195.34 99.1858C194.394 99.7139 193.126 99.0251 192.699 98.0301C192.355 96.991 192.388 95.8638 192.79 94.8462C193.199 93.8414 193.484 92.7901 193.638 91.7159C193.68 90.7262 193.401 89.7496 192.844 88.9316C192.286 88.1137 191.48 87.4983 190.545 87.1773C190.982 86.7944 191.337 86.3271 191.59 85.8034C191.842 85.2798 191.987 84.7104 192.014 84.1295C192.042 83.5486 191.953 82.968 191.752 82.4226C191.55 81.8771 191.241 81.3779 190.843 80.9548C189.984 80.2752 189.061 79.6805 188.087 79.1792C187.562 78.8308 187.074 78.4308 186.629 77.9852C187.448 78.1926 188.302 78.2214 189.133 78.0694C189.801 77.9218 190.421 77.6071 190.935 77.1548C191.449 76.7025 191.84 76.1272 192.073 75.4825C192.29 74.8332 192.322 74.1361 192.165 73.4695C192.009 72.803 191.67 72.1934 191.187 71.7092C190.685 71.2342 190.049 70.9257 189.366 70.8258C188.683 70.7258 187.986 70.8392 187.369 71.1505C186.186 71.7781 185.529 73.0716 184.956 74.2885C184.773 74.6635 184.598 75.0539 184.422 75.4136C182.75 73.194 181.177 70.9056 178.596 70.1249C176.26 69.4131 173.748 70.2015 171.312 70.0254C169.541 69.8953 167.838 69.2601 166.067 69.0611C164.295 68.8621 162.249 69.2448 161.249 70.6913C160.631 71.5332 160.44 72.6353 159.821 73.4772C158.538 75.2146 155.782 75.4519 154.728 77.3041C153.873 78.8348 154.53 80.7712 154.163 82.4932C153.766 84.3607 152.232 85.7231 150.972 87.1543C149.712 88.5855 148.62 90.5602 149.323 92.3358C149.941 93.8665 151.758 94.7391 152.377 96.3081C152.804 97.4561 152.491 98.7343 152.468 99.9588C152.446 101.183 152.942 102.638 154.133 102.913L167.686 106.503C172.358 108.408 177.176 110.33 182.193 110.33C187.209 110.33 192.607 107.903 194.6 103.258C193.864 103.226 193.167 102.914 192.653 102.385C193.309 102.085 193.891 101.642 194.356 101.088C194.82 100.535 195.157 99.8853 195.34 99.1858Z" fill="#263238"/>
<path d="M184.223 103.449C185.437 100.032 186.351 96.516 186.957 92.9405C187.559 89.3522 187.262 85.6704 186.094 82.2254C185.903 81.7126 184.277 78.2608 183.735 78.3143C183.345 78.3526 184.346 81.5748 184.147 81.9115C182.269 85.149 181.757 89.0448 182.055 92.7874C182.383 96.4155 183.11 99.9962 184.223 103.464" fill="#263238"/>
<path d="M172.251 133.574C177.856 133.451 184.216 121.175 184.216 121.175L184.582 89.6187C184.88 80.5338 179.848 72.7807 170.778 72.7424L169.938 72.7884C165.87 73.0079 162.034 74.7541 159.191 77.6796C156.349 80.6052 154.71 84.4958 154.599 88.5778C154.385 96.4534 154.255 105.163 154.53 109.365C155.103 118.067 163.868 118.955 163.868 118.955C163.868 118.955 163.914 120.976 163.944 123.547C164.005 129.295 170.007 133.773 172.251 133.581V133.574Z" fill="#FFBE9D"/>
<path d="M163.868 118.955C167.88 118.732 171.744 117.358 175 114.998C175 114.998 172.58 121.481 163.868 121.121V118.955Z" fill="#EB996E"/>
<path d="M158.348 95.4125C158.363 95.7374 158.504 96.0434 158.741 96.2661C158.977 96.4888 159.291 96.6109 159.615 96.6065C159.773 96.6096 159.931 96.5809 160.078 96.5223C160.225 96.4637 160.359 96.3762 160.472 96.265C160.585 96.1539 160.675 96.0212 160.736 95.8748C160.797 95.7285 160.829 95.5713 160.829 95.4125C160.817 95.0884 160.678 94.782 160.442 94.56C160.206 94.3379 159.893 94.218 159.569 94.2262C159.411 94.2222 159.253 94.2498 159.106 94.3075C158.958 94.3652 158.824 94.4518 158.71 94.5623C158.596 94.6727 158.505 94.8048 158.443 94.9508C158.381 95.0968 158.348 95.2538 158.348 95.4125Z" fill="#263238"/>
<path d="M156.675 92.091C156.836 92.2517 157.737 91.5017 159.073 91.4328C160.409 91.3639 161.425 91.9839 161.562 91.8078C161.699 91.6318 161.455 91.4481 161.012 91.1573C160.413 90.7878 159.714 90.614 159.012 90.6598C158.312 90.7019 157.645 90.9704 157.111 91.4251C156.675 91.7542 156.569 92.0221 156.675 92.091Z" fill="#263238"/>
<path d="M170.419 95.0912C170.431 95.4161 170.57 95.7232 170.805 95.9465C171.041 96.1698 171.355 96.2914 171.679 96.2852C171.838 96.2893 171.996 96.2614 172.144 96.2033C172.292 96.1451 172.427 96.0578 172.541 95.9465C172.655 95.8352 172.745 95.7022 172.807 95.5553C172.869 95.4084 172.9 95.2506 172.9 95.0912C172.885 94.7684 172.744 94.4644 172.509 94.2431C172.274 94.0218 171.963 93.9006 171.641 93.9049C171.482 93.8998 171.324 93.9267 171.176 93.984C171.028 94.0413 170.893 94.1279 170.779 94.2386C170.665 94.3492 170.574 94.4818 170.513 94.6282C170.451 94.7747 170.419 94.9322 170.419 95.0912Z" fill="#263238"/>
<path d="M169.755 91.9301C169.923 92.0832 170.824 91.3408 172.16 91.2719C173.496 91.203 174.511 91.8153 174.649 91.6469C174.786 91.4786 174.542 91.2872 174.099 90.9964C173.5 90.6269 172.801 90.4531 172.099 90.4989C171.403 90.5301 170.737 90.7851 170.198 91.226C169.8 91.5627 169.655 91.8612 169.755 91.9301Z" fill="#263238"/>
<path d="M165.517 102.469C164.801 102.286 164.065 102.193 163.326 102.194C162.99 102.194 162.662 102.125 162.562 101.895C162.508 101.544 162.567 101.185 162.73 100.87C163.013 100.028 163.295 99.1399 163.601 98.2138C164.807 94.4329 165.655 91.3255 165.502 91.2796C165.349 91.2336 164.25 94.2645 163.051 98.0454C162.761 98.974 162.486 99.8618 162.226 100.709C162.036 101.135 161.998 101.613 162.119 102.064C162.175 102.181 162.257 102.285 162.359 102.366C162.461 102.447 162.58 102.503 162.707 102.53C162.897 102.576 163.093 102.594 163.288 102.584C164.033 102.642 164.782 102.603 165.517 102.469Z" fill="#263238"/>
<path d="M169.495 103.189C169.281 103.189 169.358 104.643 168.167 105.737C166.975 106.832 165.433 106.763 165.433 106.962C165.433 107.161 165.792 107.23 166.441 107.215C167.29 107.177 168.1 106.844 168.732 106.273C169.337 105.722 169.704 104.956 169.755 104.138C169.778 103.525 169.594 103.173 169.495 103.189Z" fill="#263238"/>
<path d="M169.541 86.4961C169.694 86.8559 171.014 86.6109 172.595 86.7181C174.175 86.8252 175.458 87.1773 175.649 86.8406C175.733 86.6798 175.496 86.3507 174.97 86.0293C174.271 85.6238 173.485 85.3928 172.679 85.3557C171.872 85.302 171.063 85.441 170.32 85.7614C169.747 86.0293 169.472 86.3278 169.541 86.4961Z" fill="#263238"/>
<path d="M156.966 87.6136C157.218 87.9044 158.119 87.5447 159.256 87.4681C160.394 87.3916 161.31 87.56 161.509 87.2309C161.593 87.0702 161.432 86.7793 161.005 86.5114C160.436 86.1976 159.788 86.0592 159.141 86.1136C158.495 86.1681 157.878 86.413 157.37 86.8176C156.966 87.162 156.851 87.4758 156.966 87.6136Z" fill="#263238"/>
<path d="M184.216 96.1092C184.361 96.0327 190.095 94.0198 190.225 99.982C190.355 105.944 184.353 104.842 184.338 104.674C184.323 104.505 184.216 96.1092 184.216 96.1092Z" fill="#FFBE9D"/>
<path d="M186.102 102.377C186.102 102.377 186.209 102.446 186.384 102.523C186.629 102.62 186.902 102.62 187.148 102.523C187.774 102.278 188.278 101.268 188.285 100.227C188.287 99.7168 188.178 99.2126 187.965 98.7496C187.901 98.5674 187.795 98.403 187.656 98.27C187.517 98.1369 187.348 98.039 187.163 97.9842C187.044 97.9572 186.918 97.9721 186.809 98.0264C186.699 98.0808 186.611 98.1712 186.56 98.2827C186.483 98.4511 186.522 98.5736 186.491 98.5812C186.461 98.5889 186.361 98.4894 186.407 98.2368C186.436 98.09 186.514 97.9575 186.629 97.8618C186.708 97.7966 186.799 97.7481 186.898 97.7192C186.996 97.6902 187.099 97.6815 187.201 97.6934C187.446 97.7374 187.676 97.8435 187.868 98.0016C188.061 98.1597 188.209 98.3645 188.301 98.5965C188.573 99.0785 188.725 99.6195 188.744 100.173C188.744 101.375 188.14 102.515 187.285 102.783C187.127 102.834 186.96 102.848 186.796 102.825C186.632 102.801 186.475 102.739 186.338 102.645C186.117 102.523 186.086 102.385 186.102 102.377Z" fill="#EB996E"/>
<path d="M158.325 78.6435C157.355 78.1231 160.203 74.9621 162.555 73.8523C166.113 72.1838 171.564 71.1123 174.878 72.0078C178.864 73.087 182.185 75.0233 184.223 78.6205C186.193 82.2846 187.152 86.4086 187.003 90.5679C187.078 91.8314 186.815 93.0921 186.239 94.2187C185.422 95.5504 183.834 96.4 183.949 98.2215C183.975 98.5507 183.935 98.8819 183.833 99.1958C183.731 99.5098 183.568 99.8003 183.353 100.051C182.276 101.222 180.933 100.15 180.299 99.0634C178.963 96.7673 178.772 93.9585 178.627 91.2797C178.418 89.3827 178.521 87.4642 178.932 85.6007C179.207 84.6057 179.696 83.6567 179.887 82.6464C180.033 82.148 180.067 81.6236 179.988 81.1104C179.909 80.5971 179.718 80.1076 179.429 79.6768C179.283 79.4992 179.119 79.3375 178.94 79.1946C178.101 78.4788 177.088 77.9996 176.004 77.8059C174.92 77.6122 173.804 77.7111 172.771 78.0924C169.434 79.3247 163.73 81.1539 162.219 80.0518C160.05 78.4445 159.523 77.3807 159.523 77.3807L158.325 78.6435Z" fill="#263238"/>
<path d="M174.55 71.1965C172.914 70.6398 171.184 70.414 169.46 70.5323C167.737 70.6505 166.054 71.1104 164.509 71.8854C163.68 72.2786 162.939 72.836 162.33 73.5239C161.721 74.2118 161.257 75.016 160.966 75.8882C160.493 77.6639 161.272 79.8298 162.982 80.4804L163.097 80.5569C165.647 81.3759 167.296 81.0162 169.816 80.1054C171.938 79.34 173.809 77.993 175.924 77.2429C178.197 76.4339 180.661 76.3299 182.994 76.9444C180.733 74.3169 177.82 72.3342 174.55 71.1965Z" fill="#263238"/>
<path d="M185.873 77.0974C185.819 77.1434 185.338 76.5693 184.346 75.9035C183.783 75.5087 183.176 75.1824 182.536 74.9314C181.77 74.6172 180.943 74.4786 180.116 74.5258C178.601 74.6956 177.164 75.2897 175.97 76.2402C175.046 77.0056 174.618 77.5873 174.565 77.5413C174.511 77.4954 174.626 77.3577 174.824 77.0821C175.105 76.6952 175.428 76.3409 175.787 76.0259C176.999 74.963 178.513 74.3073 180.116 74.1508C181.003 74.0975 181.889 74.2548 182.704 74.61C183.362 74.8842 183.981 75.2445 184.544 75.6815C185.083 76.053 185.536 76.5358 185.873 77.0974Z" fill="#455A64"/>
<path d="M186.453 79.21C186.409 79.8018 186.256 80.3804 186.002 80.9167C184.937 83.5904 182.974 85.8074 180.452 87.1851C179.949 87.4985 179.396 87.7212 178.818 87.8433C182.384 86.0674 185.121 82.9717 186.453 79.21Z" fill="#455A64"/>
<path d="M188.889 80.1819C188.923 80.4051 188.923 80.6323 188.889 80.8554C188.852 81.4738 188.765 82.0881 188.629 82.6923C188.173 84.6996 187.227 86.5624 185.878 88.1142C184.528 89.6661 182.816 90.8588 180.895 91.5859C180.316 91.8033 179.721 91.9723 179.116 92.091C178.897 92.1499 178.67 92.1731 178.444 92.1599C178.444 92.091 179.375 91.9226 180.788 91.318C182.627 90.5432 184.265 89.3569 185.576 87.8499C186.888 86.3429 187.838 84.5552 188.354 82.6234C188.782 81.1386 188.812 80.1743 188.889 80.1819Z" fill="#455A64"/>
<path d="M167.739 70.6531C167.224 70.8825 166.696 71.0818 166.158 71.2501C164.914 71.7531 163.753 72.442 162.715 73.2936C161.68 74.15 160.783 75.1621 160.058 76.2938C159.493 77.1663 159.233 77.7557 159.172 77.7327C159.282 77.1682 159.5 76.6303 159.813 76.1484C160.494 74.9395 161.392 73.8677 162.463 72.9874C163.529 72.1015 164.751 71.4239 166.067 70.9898C166.599 70.7772 167.166 70.6631 167.739 70.6531Z" fill="#455A64"/>
<path d="M190.752 71.4031C190.621 72.6485 190.084 73.816 189.225 74.7248C188.474 75.7216 187.421 76.4469 186.224 76.7912C187.203 76.1228 188.108 75.3532 188.927 74.4951C189.646 73.5347 190.258 72.4978 190.752 71.4031Z" fill="#455A64"/>
<path d="M125.371 158.226L117.308 174.414C116.411 176.219 115.991 178.224 116.086 180.238C116.233 183.259 117.534 186.107 119.719 188.193C121.903 190.279 124.805 191.443 127.822 191.443L150.842 190.104L151.85 179.572L134.335 175.34L140.97 162.757L125.371 158.226Z" fill="#FFBE9D"/>
<path d="M147.345 179.534H151.85C151.85 179.534 162.02 175.852 164.112 176.204C165.998 176.518 172.893 181.11 174.244 182.021C174.393 182.125 174.508 182.272 174.573 182.442C174.704 182.802 174.692 183.199 174.538 183.55C174.384 183.901 174.101 184.178 173.748 184.325L173.603 184.378L173.664 184.585C173.746 184.853 173.782 185.132 173.771 185.412C173.755 185.624 173.673 185.825 173.535 185.987C173.397 186.148 173.211 186.261 173.005 186.309C172.798 186.357 172.582 186.337 172.387 186.253C172.192 186.169 172.03 186.024 171.923 185.84L172.183 186.307C172.288 186.496 172.338 186.711 172.328 186.927V187.348C172.315 187.574 172.236 187.79 172.1 187.97C171.964 188.15 171.777 188.285 171.564 188.358C171.359 188.427 171.137 188.435 170.927 188.381C170.717 188.327 170.527 188.212 170.381 188.052C169.503 187.088 167.617 185.152 166.334 184.937C164.951 184.773 163.558 184.704 162.165 184.731C161.881 184.729 161.602 184.815 161.368 184.976C161.133 185.138 160.953 185.367 160.852 185.634C161.615 185.687 166.891 188.45 168.762 189.461C169.055 189.606 169.307 189.822 169.496 190.089C169.686 190.356 169.806 190.666 169.846 190.991C169.915 191.573 169.625 192.193 168.464 191.917C166.085 191.207 163.76 190.324 161.509 189.277C161.509 189.277 159.218 188.619 157.691 189.675C155.591 191.16 154.637 191.703 152.82 191.106C151.725 190.737 150.675 190.247 149.689 189.644L146.131 189.292C146.131 189.292 142.749 180.827 147.345 179.534Z" fill="#FFBE9D"/>
<path d="M160.776 181.256C161.407 181.135 162.044 181.045 162.684 180.988C164.235 180.885 165.787 181.151 167.216 181.762C168.645 182.374 169.91 183.315 170.907 184.509C171.671 185.419 171.999 186.093 172.038 186.078C171.976 185.913 171.899 185.754 171.808 185.603C171.588 185.189 171.333 184.794 171.045 184.424C170.06 183.184 168.783 182.209 167.329 181.586C165.875 180.964 164.289 180.713 162.715 180.858C162.24 180.894 161.77 180.973 161.31 181.095C161.126 181.127 160.946 181.181 160.776 181.256Z" fill="#EB996E"/>
<path d="M161.852 178.784C162.496 178.583 163.163 178.465 163.837 178.432C165.473 178.423 167.077 178.88 168.464 179.748C169.839 180.634 171.092 181.696 172.19 182.909L173.213 183.996C173.329 184.138 173.459 184.266 173.603 184.379C173.503 184.224 173.391 184.078 173.267 183.942C173.045 183.674 172.717 183.284 172.29 182.817C171.21 181.563 169.955 180.473 168.564 179.58C167.145 178.695 165.499 178.248 163.83 178.294C163.328 178.32 162.833 178.413 162.356 178.569C162.188 178.615 162.066 178.684 161.974 178.715C161.883 178.746 161.845 178.776 161.852 178.784Z" fill="#EB996E"/>
<path d="M134.335 175.301C134.335 175.37 133.533 175.24 132.265 175.248C130.612 175.283 128.974 175.575 127.409 176.113C125.84 176.626 124.368 177.402 123.057 178.409C122.065 179.174 121.591 179.84 121.53 179.802C121.469 179.763 121.614 179.61 121.82 179.312C122.132 178.903 122.485 178.529 122.874 178.194C124.166 177.089 125.659 176.247 127.272 175.715C128.874 175.158 130.563 174.899 132.258 174.949C132.771 174.968 133.281 175.027 133.785 175.125C133.976 175.156 134.161 175.215 134.335 175.301Z" fill="#EB996E"/>
<path d="M223.69 155.44C223.69 155.44 228.722 169.982 234.15 183.445C234.256 183.719 234.343 184 234.41 184.287C234.582 185.149 234.559 186.038 234.344 186.891C234.129 187.743 233.727 188.536 233.168 189.213C232.608 189.89 231.905 190.433 231.109 190.803C230.314 191.173 229.446 191.36 228.569 191.351H196.852V181.118L216.383 176.962L209.313 161.226L223.69 155.44Z" fill="#FFBE9D"/>
<path d="M203.457 179.855H198.952C198.952 179.855 188.782 176.174 186.69 176.526C184.804 176.84 177.909 181.432 176.558 182.343C176.406 182.441 176.291 182.586 176.229 182.756C176.098 183.116 176.11 183.513 176.264 183.864C176.418 184.215 176.701 184.492 177.054 184.639L177.199 184.7L177.13 184.907C177.051 185.175 177.017 185.454 177.031 185.733C177.046 185.945 177.129 186.147 177.267 186.308C177.405 186.47 177.591 186.583 177.797 186.631C178.004 186.678 178.22 186.659 178.415 186.574C178.609 186.49 178.772 186.346 178.879 186.162L178.619 186.621C178.511 186.809 178.461 187.025 178.474 187.241V187.662C178.485 187.889 178.563 188.107 178.7 188.289C178.836 188.47 179.023 188.607 179.238 188.68C179.444 188.747 179.666 188.753 179.875 188.698C180.085 188.642 180.275 188.527 180.421 188.366C181.299 187.402 183.185 185.473 184.46 185.259C185.846 185.091 187.241 185.021 188.637 185.052C188.921 185.053 189.198 185.139 189.432 185.3C189.667 185.462 189.847 185.69 189.95 185.955C189.186 186.009 183.91 188.772 182.04 189.782C181.747 189.928 181.494 190.144 181.304 190.411C181.113 190.678 180.991 190.988 180.948 191.313C180.879 191.902 181.177 192.514 182.338 192.247C184.717 191.536 187.041 190.653 189.293 189.606C189.293 189.606 191.584 188.94 193.111 189.996C195.218 191.489 196.165 192.032 197.982 191.428C199.08 191.064 200.133 190.576 201.12 189.973L204.678 189.614C204.678 189.614 208.053 181.149 203.457 179.855Z" fill="#FFBE9D"/>
<path d="M190.026 181.577C189.395 181.456 188.758 181.367 188.117 181.309C186.567 181.205 185.014 181.469 183.585 182.081C182.155 182.693 180.891 183.635 179.894 184.83C179.131 185.741 178.802 186.414 178.764 186.361C178.823 186.197 178.899 186.04 178.993 185.894C179.214 185.478 179.469 185.081 179.757 184.708C180.747 183.472 182.025 182.499 183.48 181.877C184.934 181.255 186.519 181.002 188.094 181.141C188.569 181.183 189.039 181.265 189.499 181.386C189.683 181.424 189.86 181.489 190.026 181.577Z" fill="#EB996E"/>
<path d="M188.95 179.098C188.302 178.903 187.633 178.787 186.957 178.753C185.325 178.746 183.724 179.2 182.337 180.062C180.961 180.948 179.705 182.01 178.604 183.223L177.588 184.317C177.468 184.454 177.338 184.582 177.199 184.7C177.293 184.544 177.403 184.398 177.527 184.264C177.756 183.996 178.085 183.606 178.505 183.131C179.587 181.88 180.845 180.792 182.238 179.901C183.652 179.014 185.297 178.567 186.964 178.615C187.469 178.638 187.967 178.731 188.446 178.891C188.574 178.928 188.7 178.977 188.82 179.036L188.95 179.098Z" fill="#EB996E"/>
<path d="M228.806 179.97C228.767 180.024 228.149 179.534 227.065 178.914C224.228 177.273 220.962 176.531 217.696 176.786C216.444 176.878 215.681 177.054 215.665 176.985C215.826 176.892 216.002 176.827 216.185 176.794C216.671 176.662 217.166 176.564 217.666 176.503C221.002 176.085 224.379 176.851 227.21 178.669C227.636 178.94 228.042 179.241 228.424 179.572C228.684 179.809 228.829 179.947 228.806 179.97Z" fill="#EB996E"/>
<path d="M309.564 191.749H40.2073V196.9H309.564V191.749Z" fill="#455A64"/>
<path d="M51.1486 336.128H47.4608V196.556H55.348L51.1486 336.128Z" fill="#455A64"/>
<path d="M98.5864 336.059H94.9062V196.655H102.793L98.5864 336.059Z" fill="#263238"/>
<path d="M253.139 335.906H249.451V196.67H257.339L253.139 335.906Z" fill="#263238"/>
<path d="M292.85 336.059H289.162V196.609H297.05L292.85 336.059Z" fill="#455A64"/>
<path d="M197.051 191.696H149.75C149.104 191.694 148.483 191.444 148.015 190.997C147.548 190.55 147.27 189.939 147.238 189.292L145.818 156.65C145.804 156.31 145.858 155.971 145.978 155.653C146.097 155.335 146.28 155.045 146.515 154.799C146.75 154.554 147.031 154.359 147.343 154.226C147.655 154.093 147.991 154.024 148.33 154.024H198.379C198.717 154.025 199.052 154.094 199.363 154.227C199.674 154.36 199.955 154.555 200.189 154.799C200.423 155.043 200.606 155.332 200.727 155.649C200.848 155.966 200.903 156.303 200.891 156.642L199.563 189.285C199.537 189.934 199.261 190.549 198.792 190.999C198.324 191.448 197.699 191.698 197.051 191.696Z" fill="#E0E0E0"/>
<path d="M175.939 173.434C175.939 173.947 175.787 174.449 175.503 174.875C175.219 175.302 174.814 175.635 174.341 175.831C173.868 176.027 173.348 176.079 172.846 175.979C172.344 175.879 171.883 175.631 171.521 175.269C171.159 174.906 170.912 174.443 170.812 173.94C170.712 173.437 170.764 172.915 170.959 172.441C171.155 171.967 171.487 171.562 171.913 171.277C172.338 170.992 172.839 170.839 173.351 170.839C174.037 170.841 174.694 171.115 175.179 171.602C175.664 172.088 175.937 172.746 175.939 173.434Z" fill="white"/>
<path d="M286.681 134.01C286.713 133.749 286.797 133.497 286.928 133.269C287.059 133.041 287.234 132.842 287.443 132.683C287.652 132.525 287.89 132.409 288.144 132.344C288.399 132.28 288.663 132.267 288.922 132.306C289.182 132.345 289.431 132.436 289.654 132.574C289.878 132.711 290.072 132.892 290.224 133.106C290.377 133.32 290.485 133.562 290.543 133.819C290.6 134.075 290.606 134.341 290.56 134.599L281.962 187.218H278.03L286.681 134.01Z" fill="#263238"/>
<path d="M289.75 134.661L254.292 95.627L254.033 96.0556L252.315 98.9104L286.841 137.316C287.191 137.699 287.679 137.928 288.196 137.952C288.714 137.976 289.22 137.794 289.605 137.445C289.989 137.096 290.22 136.609 290.247 136.091C290.274 135.572 290.096 135.063 289.75 134.676V134.661Z" fill="#263238"/>
<path d="M287.147 135.671C287.147 135.671 287.086 135.587 287.101 135.426C287.124 135.19 287.239 134.972 287.422 134.821C287.561 134.701 287.73 134.619 287.91 134.584C288.091 134.549 288.278 134.562 288.452 134.622C288.671 134.696 288.86 134.836 288.995 135.024C289.129 135.211 289.202 135.436 289.202 135.667C289.202 135.898 289.129 136.123 288.995 136.31C288.86 136.498 288.671 136.638 288.452 136.712C288.278 136.771 288.092 136.784 287.912 136.75C287.732 136.717 287.563 136.638 287.422 136.52C287.239 136.369 287.124 136.152 287.101 135.916C287.101 135.755 287.101 135.671 287.147 135.671C287.192 135.671 287.208 136.031 287.597 136.298C287.703 136.37 287.824 136.413 287.951 136.425C288.078 136.437 288.205 136.417 288.322 136.367C288.461 136.31 288.579 136.214 288.663 136.09C288.748 135.967 288.794 135.821 288.796 135.671C288.795 135.52 288.75 135.372 288.666 135.247C288.581 135.122 288.462 135.024 288.322 134.967C288.205 134.918 288.077 134.899 287.95 134.913C287.823 134.926 287.702 134.971 287.597 135.043C287.238 135.304 287.238 135.686 287.147 135.671Z" fill="#455A64"/>
<path d="M287.681 132.387C288.082 132.661 288.442 132.991 288.75 133.367C289.127 133.74 289.484 134.134 289.819 134.546C290.043 134.811 290.209 135.12 290.305 135.454C290.401 135.788 290.425 136.138 290.376 136.482C290.286 136.828 290.104 137.143 289.85 137.393C289.596 137.644 289.279 137.821 288.933 137.906C288.659 137.978 288.374 137.995 288.093 137.956C287.813 137.917 287.543 137.821 287.299 137.676C286.857 137.446 286.492 137.089 286.253 136.651C286.299 136.589 286.673 137.033 287.437 137.416C287.865 137.639 288.364 137.686 288.826 137.546C289.104 137.472 289.357 137.326 289.561 137.123C289.764 136.921 289.911 136.668 289.987 136.39C290.022 136.1 289.999 135.806 289.919 135.524C289.839 135.243 289.704 134.981 289.521 134.752C289.193 134.293 288.819 133.895 288.544 133.551C288.205 133.204 287.914 132.813 287.681 132.387Z" fill="#455A64"/>
<path d="M262.469 191.864H294.751C294.751 191.864 290.628 186.713 279.885 186.713C269.876 186.713 263.913 189.66 262.469 191.864Z" fill="#263238"/>
<path d="M254.498 89.4275L256.14 86.9554L254.109 85.394L252.368 87.8815L254.498 89.4275Z" fill="#263238"/>
<path d="M257.278 90.9122L250.207 85.7766L243.427 93.9584C231.661 95.8565 226.92 103.273 226.92 103.273L247.978 119.437C255.185 111.455 251.795 100.043 251.795 100.043L257.278 90.9122Z" fill="#378AF5"/>
<path d="M251.772 100.043C250.271 99.1946 248.837 98.2326 247.481 97.1654C246.052 96.1992 244.697 95.1272 243.427 93.9585C244.928 94.807 246.363 95.769 247.718 96.8363C249.151 97.7972 250.507 98.8694 251.772 100.043Z" fill="#263238"/>
<path d="M226.019 108.898C226.065 108.998 222.461 110.774 217.971 112.863C213.482 114.952 209.801 116.56 209.756 116.46C209.71 116.361 213.314 114.585 217.803 112.496C222.293 110.406 225.973 108.799 226.019 108.898Z" fill="#263238"/>
<path d="M234.143 115.94C234.227 116.016 231.448 119.001 227.951 122.606C224.454 126.211 221.545 129.073 221.468 128.997C221.392 128.92 224.163 125.935 227.66 122.331C231.157 118.726 234.066 115.863 234.143 115.94Z" fill="#263238"/>
<path d="M239.503 137.064C239.396 137.064 239.617 133.436 240.007 128.982C240.396 124.527 240.77 120.922 240.908 120.938C240.876 123.638 240.708 126.336 240.404 129.02C240.014 133.474 239.61 137.071 239.503 137.064Z" fill="#263238"/>
<path d="M350 336.059C350 336.173 271.647 336.258 175.008 336.258C78.3682 336.258 0 336.173 0 336.059C0 335.944 78.3377 335.86 175.008 335.86C271.678 335.86 350 335.951 350 336.059Z" fill="#263238"/>
<path d="M70.2597 166.859C70.3693 166.859 70.4582 166.431 70.4582 165.903C70.4582 165.374 70.3693 164.946 70.2597 164.946C70.15 164.946 70.0612 165.374 70.0612 165.903C70.0612 166.431 70.15 166.859 70.2597 166.859Z" fill="#263238"/>
<path d="M70.2597 175.493C69.995 174.066 69.995 172.603 70.2597 171.176C70.5245 172.603 70.5245 174.066 70.2597 175.493Z" fill="#263238"/>
<path d="M72.1685 181.723C71.552 181.917 70.9028 181.984 70.2597 181.922L70.0612 181.723V181.302V180.95C70.0612 180.72 70.0612 180.514 70.0612 180.338C70.0993 179.993 70.1528 179.779 70.2062 179.779C70.2597 179.779 70.3055 179.993 70.3437 180.338C70.3437 180.514 70.3437 180.72 70.3895 180.95V181.669L70.191 181.47C70.8606 181.411 71.5352 181.497 72.1685 181.723Z" fill="#263238"/>
<path d="M79.8342 181.723C79.2151 181.917 78.5635 181.985 77.9178 181.922C77.2721 181.985 76.6204 181.917 76.0013 181.723C76.6195 181.524 77.2721 181.456 77.9178 181.524C78.5635 181.456 79.2161 181.524 79.8342 181.723Z" fill="#263238"/>
<path d="M87.5077 181.723C86.2487 181.986 84.9491 181.986 83.6901 181.723C84.9491 181.46 86.2487 181.46 87.5077 181.723Z" fill="#263238"/>
<path d="M95.1735 181.723C93.9145 181.986 92.6148 181.986 91.3558 181.723C92.6148 181.46 93.9145 181.46 95.1735 181.723Z" fill="#263238"/>
<path d="M102.847 181.723C101.588 181.986 100.288 181.986 99.0293 181.723C100.288 181.46 101.588 181.46 102.847 181.723Z" fill="#263238"/>
<path d="M110.52 181.723C109.261 181.985 107.962 181.985 106.703 181.723C107.962 181.461 109.261 181.461 110.52 181.723Z" fill="#263238"/>
<path d="M118.186 181.723C116.927 181.986 115.628 181.986 114.369 181.723C115.628 181.46 116.927 181.46 118.186 181.723Z" fill="#263238"/>
<path d="M125.86 181.723C124.601 181.986 123.301 181.986 122.042 181.723C123.301 181.46 124.601 181.46 125.86 181.723Z" fill="#263238"/>
<path d="M133.525 181.723C132.266 181.986 130.967 181.986 129.708 181.723C130.967 181.46 132.266 181.46 133.525 181.723Z" fill="#263238"/>
<path d="M141.199 181.723C139.94 181.986 138.64 181.986 137.381 181.723C138.64 181.46 139.94 181.46 141.199 181.723Z" fill="#263238"/>
<path d="M146.941 181.723C146.941 181.83 146.513 181.922 145.986 181.922C145.459 181.922 145.032 181.83 145.032 181.723C145.032 181.616 145.459 181.524 145.986 181.524C146.513 181.524 146.941 181.608 146.941 181.723Z" fill="#263238"/>
<path d="M95.372 97.418H40.8334C37.9702 97.418 35.649 99.7447 35.649 102.615V157.285C35.649 160.155 37.9702 162.482 40.8334 162.482H95.372C98.2352 162.482 100.556 160.155 100.556 157.285V102.615C100.556 99.7447 98.2352 97.418 95.372 97.418Z" fill="#378AF5"/>
<path d="M80.2466 143.684C82.0346 143.187 83.5524 141.998 84.4659 140.379C85.3795 138.76 85.614 136.843 85.1178 135.051C84.6217 133.258 83.4356 131.737 81.8204 130.821C80.2053 129.906 78.2933 129.671 76.5053 130.168C77.0627 124.741 72.1379 119.407 66.694 119.552C61.25 119.698 56.6078 125.285 57.463 130.681C55.765 130.62 54.1125 131.237 52.8689 132.398C51.6253 133.558 50.8925 135.167 50.8317 136.869C50.771 138.571 51.3872 140.227 52.5449 141.474C53.7026 142.72 55.3069 143.455 57.0048 143.516L80.2466 143.684Z" fill="white"/>
</svg>
