<svg width="170" height="40" viewBox="0 0 170 40" fill="none" xmlns="http://www.w3.org/2000/svg">
<path fill-rule="evenodd" clip-rule="evenodd" d="M8.71009 10.3482C10.2956 8.9808 12.5038 8 15 8C19.7079 8 23.6158 11.499 24.04 16.0132C26.8267 16.4072 29 18.739 29 21.6023C29 24.7466 26.3791 27.25 23.2031 27.25H18.5C18.0168 27.25 17.625 26.8582 17.625 26.375C17.625 25.8918 18.0168 25.5 18.5 25.5H23.2031C25.4637 25.5 27.25 23.7297 27.25 21.6023C27.25 19.4748 25.4637 17.7045 23.2031 17.7045H22.3281V16.8295C22.3281 12.9448 19.0728 9.75 15 9.75C12.9658 9.75 11.1544 10.551 9.85301 11.6734C8.52903 12.8152 7.83594 14.192 7.83594 15.2705V16.0545L7.05654 16.1402C4.61149 16.409 2.75 18.4171 2.75 20.8068C2.75 23.3736 4.90354 25.5 7.61719 25.5H11.5C11.9832 25.5 12.375 25.8918 12.375 26.375C12.375 26.8582 11.9832 27.25 11.5 27.25H7.61719C3.98819 27.25 1 24.3905 1 20.8068C1 17.7214 3.21526 15.1665 6.1489 14.5187C6.39839 13.008 7.36974 11.5041 8.71009 10.3482Z" fill="white"/>
<path fill-rule="evenodd" clip-rule="evenodd" d="M14.3813 15.2563C14.723 14.9146 15.277 14.9146 15.6187 15.2563L20.8687 20.5063C21.2104 20.848 21.2104 21.402 20.8687 21.7437C20.527 22.0854 19.973 22.0854 19.6313 21.7437L15.875 17.9874V33.375C15.875 33.8582 15.4832 34.25 15 34.25C14.5168 34.25 14.125 33.8582 14.125 33.375V17.9874L10.3687 21.7437C10.027 22.0854 9.47299 22.0854 9.13128 21.7437C8.78957 21.402 8.78957 20.848 9.13128 20.5063L14.3813 15.2563Z" fill="white"/>
<path d="M8.71009 10.3482L9.03663 10.7268L8.71009 10.3482ZM24.04 16.0132L23.5422 16.06L23.5791 16.453L23.97 16.5083L24.04 16.0132ZM22.3281 17.7045H21.8281V18.2045H22.3281V17.7045ZM9.85301 11.6734L9.52646 11.2948V11.2948L9.85301 11.6734ZM7.83594 16.0545L7.89057 16.5516L8.33594 16.5026V16.0545H7.83594ZM7.05654 16.1402L7.00191 15.6432L7.05654 16.1402ZM6.1489 14.5187L6.25669 15.007L6.58709 14.934L6.64222 14.6002L6.1489 14.5187ZM15.6187 15.2563L15.2652 15.6098L15.6187 15.2563ZM14.3813 15.2563L14.7348 15.6098H14.7348L14.3813 15.2563ZM20.8687 20.5063L20.5152 20.8598V20.8598L20.8687 20.5063ZM20.8687 21.7437L20.5152 21.3902V21.3902L20.8687 21.7437ZM19.6313 21.7437L19.9848 21.3902L19.6313 21.7437ZM15.875 17.9874L16.2286 17.6339C16.0856 17.4909 15.8705 17.4481 15.6837 17.5255C15.4968 17.6029 15.375 17.7852 15.375 17.9874H15.875ZM14.125 17.9874H14.625C14.625 17.7852 14.5032 17.6029 14.3163 17.5255C14.1295 17.4481 13.9144 17.4909 13.7714 17.6339L14.125 17.9874ZM10.3687 21.7437L10.0152 21.3902H10.0152L10.3687 21.7437ZM9.13128 21.7437L9.48484 21.3902L9.48483 21.3902L9.13128 21.7437ZM9.13128 20.5063L9.48483 20.8598V20.8598L9.13128 20.5063ZM15 8V7.5C12.3717 7.5 10.0502 8.5322 8.38354 9.96954L8.71009 10.3482L9.03663 10.7268C10.541 9.4294 12.6358 8.5 15 8.5V8ZM24.04 16.0132L24.5378 15.9664C24.0884 11.1848 19.9553 7.5 15 7.5V8V8.5C19.4606 8.5 23.1431 11.8132 23.5422 16.06L24.04 16.0132ZM29 21.6023H29.5C29.5 18.4742 27.1274 15.9447 24.11 15.5181L24.04 16.0132L23.97 16.5083C26.5259 16.8696 28.5 19.0038 28.5 21.6023H29ZM23.2031 27.25V27.75C26.6399 27.75 29.5 25.0378 29.5 21.6023H29H28.5C28.5 24.4554 26.1182 26.75 23.2031 26.75V27.25ZM18.5 27.25V27.75H23.2031V27.25V26.75H18.5V27.25ZM17.625 26.375H17.125C17.125 27.1344 17.7406 27.75 18.5 27.75V27.25V26.75C18.2929 26.75 18.125 26.5821 18.125 26.375H17.625ZM18.5 25.5V25C17.7406 25 17.125 25.6156 17.125 26.375H17.625H18.125C18.125 26.1679 18.2929 26 18.5 26V25.5ZM23.2031 25.5V25H18.5V25.5V26H23.2031V25.5ZM27.25 21.6023H26.75C26.75 23.4402 25.2012 25 23.2031 25V25.5V26C25.7262 26 27.75 24.0193 27.75 21.6023H27.25ZM23.2031 17.7045V18.2045C25.2012 18.2045 26.75 19.7644 26.75 21.6023H27.25H27.75C27.75 19.1852 25.7262 17.2045 23.2031 17.2045V17.7045ZM22.3281 17.7045V18.2045H23.2031V17.7045V17.2045H22.3281V17.7045ZM22.3281 16.8295H21.8281V17.7045H22.3281H22.8281V16.8295H22.3281ZM15 9.75V10.25C18.8107 10.25 21.8281 13.2348 21.8281 16.8295H22.3281H22.8281C22.8281 12.6548 19.3349 9.25 15 9.25V9.75ZM9.85301 11.6734L10.1796 12.052C11.3998 10.9997 13.0977 10.25 15 10.25V9.75V9.25C12.8338 9.25 10.9091 10.1023 9.52646 11.2948L9.85301 11.6734ZM7.83594 15.2705H8.33594C8.33594 14.3844 8.92432 13.1346 10.1796 12.052L9.85301 11.6734L9.52646 11.2948C8.13374 12.4959 7.33594 13.9996 7.33594 15.2705H7.83594ZM7.83594 16.0545H8.33594V15.2705H7.83594H7.33594V16.0545H7.83594ZM7.05654 16.1402L7.11117 16.6372L7.89057 16.5516L7.83594 16.0545L7.78131 15.5575L7.00191 15.6432L7.05654 16.1402ZM2.75 20.8068H3.25C3.25 18.6857 4.90586 16.8796 7.11117 16.6372L7.05654 16.1402L7.00191 15.6432C4.31712 15.9383 2.25 18.1486 2.25 20.8068H2.75ZM7.61719 25.5V25C5.16588 25 3.25 23.0839 3.25 20.8068H2.75H2.25C2.25 23.6634 4.6412 26 7.61719 26V25.5ZM11.5 25.5V25H7.61719V25.5V26H11.5V25.5ZM12.375 26.375H12.875C12.875 25.6156 12.2594 25 11.5 25V25.5V26C11.7071 26 11.875 26.1679 11.875 26.375H12.375ZM11.5 27.25V27.75C12.2594 27.75 12.875 27.1344 12.875 26.375H12.375H11.875C11.875 26.5821 11.7071 26.75 11.5 26.75V27.25ZM7.61719 27.25V27.75H11.5V27.25V26.75H7.61719V27.25ZM1 20.8068H0.5C0.5 24.6816 3.72726 27.75 7.61719 27.75V27.25V26.75C4.24912 26.75 1.5 24.0994 1.5 20.8068H1ZM6.1489 14.5187L6.0411 14.0305C2.89327 14.7255 0.5 17.4719 0.5 20.8068H1H1.5C1.5 17.971 3.53724 15.6074 6.25669 15.007L6.1489 14.5187ZM8.71009 10.3482L8.38354 9.96954C6.98043 11.1796 5.92907 12.7812 5.65558 14.4373L6.1489 14.5187L6.64222 14.6002C6.86771 13.2348 7.75904 11.8287 9.03663 10.7268L8.71009 10.3482ZM15.6187 15.2563L15.9723 14.9027C15.4353 14.3658 14.5647 14.3658 14.0277 14.9027L14.3813 15.2563L14.7348 15.6098C14.8813 15.4634 15.1187 15.4634 15.2652 15.6098L15.6187 15.2563ZM20.8687 20.5063L21.2223 20.1527L15.9723 14.9027L15.6187 15.2563L15.2652 15.6098L20.5152 20.8598L20.8687 20.5063ZM20.8687 21.7437L21.2223 22.0973C21.7592 21.5603 21.7592 20.6897 21.2223 20.1527L20.8687 20.5063L20.5152 20.8598C20.6616 21.0063 20.6616 21.2437 20.5152 21.3902L20.8687 21.7437ZM19.6313 21.7437L19.2777 22.0973C19.8147 22.6342 20.6853 22.6342 21.2223 22.0973L20.8687 21.7437L20.5152 21.3902C20.3687 21.5366 20.1313 21.5366 19.9848 21.3902L19.6313 21.7437ZM15.875 17.9874L15.5214 18.341L19.2777 22.0973L19.6313 21.7437L19.9848 21.3902L16.2286 17.6339L15.875 17.9874ZM15.875 33.375H16.375V17.9874H15.875H15.375V33.375H15.875ZM15 34.25V34.75C15.7594 34.75 16.375 34.1344 16.375 33.375H15.875H15.375C15.375 33.5821 15.2071 33.75 15 33.75V34.25ZM14.125 33.375H13.625C13.625 34.1344 14.2406 34.75 15 34.75V34.25V33.75C14.7929 33.75 14.625 33.5821 14.625 33.375H14.125ZM14.125 17.9874H13.625V33.375H14.125H14.625V17.9874H14.125ZM10.3687 21.7437L10.7223 22.0973L14.4786 18.341L14.125 17.9874L13.7714 17.6339L10.0152 21.3902L10.3687 21.7437ZM9.13128 21.7437L8.77773 22.0973C9.3147 22.6342 10.1853 22.6342 10.7223 22.0973L10.3687 21.7437L10.0152 21.3902C9.86872 21.5366 9.63128 21.5366 9.48484 21.3902L9.13128 21.7437ZM9.13128 20.5063L8.77773 20.1527C8.24076 20.6897 8.24076 21.5603 8.77773 22.0973L9.13128 21.7437L9.48483 21.3902C9.33839 21.2437 9.33839 21.0063 9.48483 20.8598L9.13128 20.5063ZM14.3813 15.2563L14.0277 14.9027L8.77773 20.1527L9.13128 20.5063L9.48483 20.8598L14.7348 15.6098L14.3813 15.2563Z" fill="white"/>
<path d="M48.179 17.0994C48.0606 16.7159 47.8973 16.3726 47.6889 16.0696C47.4853 15.7618 47.2391 15.4991 46.9503 15.2812C46.6662 15.0634 46.3395 14.9001 45.9702 14.7912C45.6009 14.6776 45.1984 14.6207 44.7628 14.6207C43.9815 14.6207 43.2855 14.8172 42.6747 15.2102C42.0639 15.6032 41.5833 16.1809 41.233 16.9432C40.8873 17.7008 40.7145 18.6241 40.7145 19.7131C40.7145 20.8116 40.8873 21.742 41.233 22.5043C41.5786 23.2666 42.0592 23.8466 42.6747 24.2443C43.2902 24.6373 44.0052 24.8338 44.8196 24.8338C45.5582 24.8338 46.1974 24.6918 46.7372 24.4077C47.2817 24.1236 47.7008 23.7211 47.9943 23.2003C48.2879 22.6747 48.4347 22.0592 48.4347 21.3537L49.0312 21.446H45.0824V19.3864H50.9844V21.1335C50.9844 22.3788 50.7192 23.456 50.1889 24.3651C49.6586 25.2741 48.9295 25.9749 48.0014 26.4673C47.0734 26.955 46.008 27.1989 44.8054 27.1989C43.4654 27.1989 42.2888 26.8982 41.2756 26.2969C40.267 25.6908 39.4787 24.8314 38.9105 23.7188C38.3471 22.6013 38.0653 21.2756 38.0653 19.7415C38.0653 18.5672 38.2311 17.5185 38.5625 16.5952C38.8987 15.6719 39.3674 14.8883 39.9688 14.2443C40.5701 13.5956 41.2756 13.1032 42.0852 12.767C42.8949 12.4261 43.7756 12.2557 44.7273 12.2557C45.5322 12.2557 46.2827 12.3741 46.9787 12.6108C47.6747 12.8428 48.2926 13.1742 48.8324 13.6051C49.3769 14.036 49.8243 14.5473 50.1747 15.1392C50.5251 15.7311 50.7547 16.3845 50.8636 17.0994H48.179ZM58.2482 27.2131C57.1545 27.2131 56.2099 26.9858 55.4144 26.5312C54.6237 26.072 54.0153 25.4233 53.5891 24.5852C53.163 23.7424 52.9499 22.7505 52.9499 21.6094C52.9499 20.4872 53.163 19.5024 53.5891 18.6548C54.02 17.8026 54.6213 17.1397 55.3931 16.6662C56.1649 16.188 57.0716 15.9489 58.1133 15.9489C58.7856 15.9489 59.4201 16.0578 60.0167 16.2756C60.618 16.4886 61.1483 16.8201 61.6076 17.2699C62.0716 17.7197 62.4362 18.2926 62.7013 18.9886C62.9665 19.6799 63.0991 20.5038 63.0991 21.4602V22.2486H54.1573V20.5156H60.6346C60.6299 20.0232 60.5233 19.5852 60.315 19.2017C60.1067 18.8134 59.8155 18.508 59.4414 18.2855C59.0721 18.063 58.6412 17.9517 58.1488 17.9517C57.6232 17.9517 57.1616 18.0795 56.7638 18.3352C56.3661 18.5862 56.056 18.9176 55.8335 19.3295C55.6156 19.7367 55.5044 20.1842 55.4996 20.6719V22.1847C55.4996 22.8191 55.6156 23.3636 55.8477 23.8182C56.0797 24.268 56.404 24.6136 56.8207 24.8551C57.2373 25.0919 57.725 25.2102 58.2837 25.2102C58.6578 25.2102 58.9963 25.1581 59.2994 25.054C59.6024 24.9451 59.8652 24.7865 60.0877 24.5781C60.3103 24.3698 60.4783 24.1117 60.592 23.804L62.9925 24.0739C62.841 24.7083 62.5522 25.2623 62.1261 25.7358C61.7047 26.2045 61.1649 26.5691 60.5067 26.8295C59.8486 27.0852 59.0958 27.2131 58.2482 27.2131ZM70.7216 16.0909V18.0795H64.4503V16.0909H70.7216ZM65.9986 13.4773H68.5696V23.7188C68.5696 24.0644 68.6217 24.3295 68.7259 24.5142C68.8348 24.6941 68.9768 24.8172 69.152 24.8835C69.3272 24.9498 69.5213 24.983 69.7344 24.983C69.8954 24.983 70.0421 24.9711 70.1747 24.9474C70.312 24.9238 70.4162 24.9025 70.4872 24.8835L70.9205 26.8935C70.7831 26.9408 70.5866 26.9929 70.331 27.0497C70.08 27.1065 69.7723 27.1397 69.4077 27.1491C68.7637 27.1681 68.1837 27.071 67.6676 26.858C67.1515 26.6402 66.742 26.304 66.4389 25.8494C66.1406 25.3949 65.9938 24.8267 65.9986 24.1449V13.4773ZM71.7958 12.4545H74.7717L78.3299 18.8892H78.4719L82.0302 12.4545H85.006L79.7148 21.5739V27H77.087V21.5739L71.7958 12.4545ZM89.4858 27.2131C88.4205 27.2131 87.4972 26.9787 86.7159 26.5099C85.9347 26.0412 85.3286 25.3854 84.8977 24.5426C84.4716 23.6998 84.2585 22.715 84.2585 21.5881C84.2585 20.4612 84.4716 19.474 84.8977 18.6264C85.3286 17.7789 85.9347 17.1207 86.7159 16.652C87.4972 16.1832 88.4205 15.9489 89.4858 15.9489C90.5511 15.9489 91.4744 16.1832 92.2557 16.652C93.0369 17.1207 93.6406 17.7789 94.0668 18.6264C94.4976 19.474 94.7131 20.4612 94.7131 21.5881C94.7131 22.715 94.4976 23.6998 94.0668 24.5426C93.6406 25.3854 93.0369 26.0412 92.2557 26.5099C91.4744 26.9787 90.5511 27.2131 89.4858 27.2131ZM89.5 25.1534C90.0777 25.1534 90.5606 24.9948 90.9489 24.6776C91.3371 24.3556 91.6259 23.9247 91.8153 23.3849C92.0095 22.8452 92.1065 22.2438 92.1065 21.581C92.1065 20.9134 92.0095 20.3097 91.8153 19.7699C91.6259 19.2254 91.3371 18.7921 90.9489 18.4702C90.5606 18.1482 90.0777 17.9872 89.5 17.9872C88.9081 17.9872 88.4157 18.1482 88.0227 18.4702C87.6345 18.7921 87.3433 19.2254 87.1491 19.7699C86.9598 20.3097 86.8651 20.9134 86.8651 21.581C86.8651 22.2438 86.9598 22.8452 87.1491 23.3849C87.3433 23.9247 87.6345 24.3556 88.0227 24.6776C88.4157 24.9948 88.9081 25.1534 89.5 25.1534ZM103.848 22.4119V16.0909H106.419V27H103.926V25.0611H103.813C103.567 25.6719 103.162 26.1714 102.598 26.5597C102.04 26.9479 101.351 27.142 100.532 27.142C99.8166 27.142 99.1845 26.9834 98.6353 26.6662C98.0908 26.3442 97.6647 25.8778 97.3569 25.267C97.0491 24.6515 96.8952 23.9081 96.8952 23.0369V16.0909H99.4663V22.6392C99.4663 23.3305 99.6557 23.8797 100.034 24.2869C100.413 24.6941 100.91 24.8977 101.526 24.8977C101.905 24.8977 102.272 24.8054 102.627 24.6207C102.982 24.4361 103.273 24.1615 103.5 23.7969C103.732 23.4276 103.848 22.9659 103.848 22.4119ZM109.063 27V16.0909H111.556V17.9091H111.67C111.869 17.2794 112.21 16.794 112.692 16.4531C113.18 16.1075 113.737 15.9347 114.362 15.9347C114.504 15.9347 114.662 15.9418 114.837 15.956C115.017 15.9654 115.166 15.982 115.285 16.0057V18.3707C115.176 18.3329 115.003 18.2997 114.766 18.2713C114.534 18.2382 114.309 18.2216 114.092 18.2216C113.623 18.2216 113.201 18.3234 112.827 18.527C112.458 18.7259 112.167 19.0028 111.954 19.358C111.741 19.7131 111.634 20.1226 111.634 20.5866V27H109.063ZM121.712 12.4545H124.326V22.6818C124.321 23.6193 124.122 24.4266 123.729 25.1037C123.336 25.776 122.787 26.2945 122.082 26.6591C121.381 27.0189 120.564 27.1989 119.631 27.1989C118.779 27.1989 118.012 27.0473 117.33 26.7443C116.653 26.4366 116.116 25.982 115.718 25.3807C115.32 24.7794 115.121 24.0312 115.121 23.1364H117.742C117.747 23.5294 117.832 23.8679 117.998 24.152C118.168 24.4361 118.403 24.6539 118.701 24.8054C118.999 24.9569 119.343 25.0327 119.731 25.0327C120.152 25.0327 120.51 24.9451 120.803 24.7699C121.097 24.59 121.319 24.3248 121.471 23.9744C121.627 23.6241 121.708 23.1932 121.712 22.6818V12.4545ZM135.089 16.4531C135.023 15.8329 134.744 15.3499 134.251 15.0043C133.764 14.6586 133.129 14.4858 132.348 14.4858C131.799 14.4858 131.328 14.5687 130.935 14.7344C130.542 14.9001 130.241 15.125 130.033 15.4091C129.824 15.6932 129.718 16.0175 129.713 16.3821C129.713 16.6851 129.782 16.9479 129.919 17.1705C130.061 17.393 130.253 17.5824 130.494 17.7386C130.736 17.8902 131.003 18.018 131.297 18.1222C131.59 18.2263 131.886 18.3139 132.185 18.3849L133.548 18.7259C134.098 18.8537 134.625 19.0265 135.132 19.2443C135.643 19.4621 136.1 19.7367 136.503 20.0682C136.91 20.3996 137.232 20.7997 137.469 21.2685C137.705 21.7372 137.824 22.2865 137.824 22.9162C137.824 23.7685 137.606 24.5189 137.17 25.1676C136.735 25.8116 136.105 26.3158 135.281 26.6804C134.462 27.0402 133.47 27.2202 132.305 27.2202C131.174 27.2202 130.191 27.045 129.358 26.6946C128.529 26.3442 127.881 25.8329 127.412 25.1605C126.948 24.4882 126.697 23.669 126.659 22.7031H129.251C129.289 23.2098 129.446 23.6312 129.72 23.9673C129.995 24.3035 130.352 24.5545 130.793 24.7202C131.238 24.8859 131.735 24.9688 132.284 24.9688C132.857 24.9688 133.359 24.8835 133.79 24.7131C134.225 24.5379 134.566 24.2964 134.812 23.9886C135.059 23.6761 135.184 23.3116 135.189 22.8949C135.184 22.5161 135.073 22.2036 134.855 21.9574C134.637 21.7064 134.332 21.4981 133.939 21.3324C133.551 21.1619 133.096 21.0104 132.575 20.8778L130.92 20.4517C129.723 20.1439 128.776 19.6776 128.08 19.0526C127.388 18.4228 127.043 17.5871 127.043 16.5455C127.043 15.6884 127.275 14.938 127.739 14.294C128.207 13.6501 128.844 13.1506 129.649 12.7955C130.454 12.4356 131.366 12.2557 132.384 12.2557C133.416 12.2557 134.32 12.4356 135.097 12.7955C135.878 13.1506 136.491 13.6454 136.936 14.2798C137.381 14.9096 137.611 15.634 137.625 16.4531H135.089ZM153.17 19.7273C153.17 21.2945 152.877 22.6368 152.289 23.7543C151.707 24.867 150.912 25.7192 149.903 26.3111C148.899 26.9029 147.761 27.1989 146.487 27.1989C145.213 27.1989 144.072 26.9029 143.064 26.3111C142.06 25.7145 141.264 24.8598 140.677 23.7472C140.095 22.6297 139.804 21.2898 139.804 19.7273C139.804 18.16 140.095 16.8201 140.677 15.7074C141.264 14.59 142.06 13.7353 143.064 13.1435C144.072 12.5516 145.213 12.2557 146.487 12.2557C147.761 12.2557 148.899 12.5516 149.903 13.1435C150.912 13.7353 151.707 14.59 152.289 15.7074C152.877 16.8201 153.17 18.16 153.17 19.7273ZM150.521 19.7273C150.521 18.6241 150.348 17.6937 150.002 16.9361C149.662 16.1738 149.188 15.5985 148.582 15.2102C147.976 14.8172 147.278 14.6207 146.487 14.6207C145.696 14.6207 144.998 14.8172 144.392 15.2102C143.786 15.5985 143.31 16.1738 142.964 16.9361C142.623 17.6937 142.453 18.6241 142.453 19.7273C142.453 20.8305 142.623 21.7633 142.964 22.5256C143.31 23.2831 143.786 23.8584 144.392 24.2514C144.998 24.6397 145.696 24.8338 146.487 24.8338C147.278 24.8338 147.976 24.6397 148.582 24.2514C149.188 23.8584 149.662 23.2831 150.002 22.5256C150.348 21.7633 150.521 20.8305 150.521 19.7273ZM167.614 12.4545V27H165.271L158.417 17.0923H158.296V27H155.661V12.4545H158.019L164.866 22.3693H164.994V12.4545H167.614Z" fill="white"/>
</svg>
